<svg xmlns="http://www.w3.org/2000/svg" xmlns:xlink="http://www.w3.org/1999/xlink" width="500" zoomAndPan="magnify" viewBox="0 0 375 374.999991" height="500" preserveAspectRatio="xMidYMid meet" version="1.0"><path fill="#7fb219" d="M 184.175781 80.550781 C 186.597656 75.457031 188.335938 70.144531 189.394531 64.605469 C 190.449219 59.066406 190.789062 53.488281 190.410156 47.863281 C 207.125 51.667969 213.332031 72.800781 211.195312 89.808594 C 209.058594 106.816406 201.84375 123.558594 204.394531 140.511719 C 205.183594 145.757812 208.429688 151.957031 213.714844 151.484375 C 218.65625 151.046875 220.90625 145.21875 222.0625 140.394531 C 227.082031 119.476562 232.101562 98.554688 237.121094 77.632812 C 249.921875 82.644531 257.003906 97.085938 257.496094 110.824219 C 257.988281 124.558594 253.183594 137.875 248.445312 150.78125 L 228.75 204.480469 C 239.3125 207.035156 247.984375 196.304688 253.207031 186.785156 C 265.222656 164.890625 275.148438 142.082031 282.984375 118.363281 C 299.078125 142.847656 311.816406 176.6875 293.757812 199.761719 C 279.664062 217.773438 249.808594 224.191406 246.089844 246.753906 C 265.398438 243.769531 283.617188 234.125 296.945312 219.832031 C 306.746094 238.871094 296.203125 264.449219 277.054688 274.039062 C 257.910156 283.625 233.472656 278.523438 217.144531 264.671875 C 220.289062 267.34375 206.527344 289.953125 203.363281 293.226562 C 195.914062 300.9375 187.542969 304.160156 176.984375 304.949219 C 152.292969 306.792969 124.691406 292.304688 101.664062 285.039062 C 99.148438 284.246094 96.421875 283.292969 95.042969 281.046875 C 91.1875 274.761719 101.550781 269.054688 108.820312 270.296875 C 121.726562 272.5 132.8125 281.207031 145.730469 283.316406 C 158.644531 285.421875 175.1875 274.796875 170.597656 262.542969 C 167.664062 254.703125 158.164062 251.898438 149.894531 250.589844 C 130.929688 247.59375 109.585938 246.886719 92.5 237.164062 C 63.164062 220.472656 72.539062 172.054688 73.007812 143.511719 C 79.457031 153.542969 86.753906 162.914062 94.894531 171.625 C 103.039062 180.335938 111.898438 188.25 121.46875 195.359375 C 131.171875 202.566406 147.410156 207.625 153.261719 197.054688 C 157.617188 189.175781 151.425781 179.609375 144.710938 173.585938 C 128.820312 159.351562 108.335938 150.707031 93.542969 135.328125 C 86 127.480469 79.910156 117.058594 81.203125 106.253906 C 82.492188 95.449219 93.929688 85.753906 104.136719 89.546875 C 111.066406 92.121094 114.898438 99.4375 117.609375 106.308594 C 120.320312 113.183594 122.882812 120.695312 128.855469 125.054688 C 134.828125 129.410156 145.410156 128 147.113281 120.804688 C 148.734375 113.949219 141.820312 108.476562 136.472656 103.890625 C 117.132812 87.292969 110.558594 57.484375 121.132812 34.296875 C 125.53125 24.648438 136.203125 15.277344 145.703125 19.992188 C 149.035156 21.644531 151.386719 24.730469 153.558594 27.746094 C 165.507812 44.335938 175.710938 61.9375 184.175781 80.550781 Z M 184.175781 80.550781 " fill-opacity="1" fill-rule="nonzero"/><path fill="#7fb219" d="M 121.140625 34.324219 C 124.445312 41.21875 127.652344 48.144531 130.851562 55.066406 C 134.046875 61.988281 137.199219 68.925781 140.339844 75.863281 C 143.484375 82.796875 146.605469 89.738281 149.726562 96.679688 L 159.042969 117.507812 C 171.4375 145.273438 183.734375 173.035156 196.316406 200.648438 C 197.894531 204.097656 199.457031 207.550781 201.054688 210.992188 C 202.621094 214.441406 204.222656 217.875 205.8125 221.316406 C 207.398438 224.757812 208.996094 228.191406 210.613281 231.621094 C 212.230469 235.050781 213.847656 238.46875 215.449219 241.902344 L 217.894531 247.03125 C 218.703125 248.746094 219.527344 250.449219 220.347656 252.152344 C 221.984375 255.570312 223.640625 258.972656 225.292969 262.378906 L 227.792969 267.476562 C 228.621094 269.179688 229.484375 270.859375 230.316406 272.558594 L 231.578125 275.101562 L 232.855469 277.636719 C 233.71875 279.3125 234.546875 281.019531 235.414062 282.699219 L 237.996094 287.75 L 240.613281 292.78125 C 241.046875 293.621094 241.488281 294.460938 241.933594 295.292969 L 243.257812 297.808594 C 243.703125 298.648438 244.136719 299.484375 244.585938 300.3125 L 245.929688 302.808594 C 249.519531 309.460938 253.203125 316.058594 257.039062 322.566406 C 260.878906 329.078125 264.867188 335.5 269.140625 341.734375 L 270.761719 344.0625 L 271.574219 345.234375 C 271.847656 345.625 272.128906 346 272.414062 346.382812 L 274.089844 348.675781 C 274.636719 349.453125 275.238281 350.1875 275.8125 350.933594 C 276.386719 351.679688 276.964844 352.441406 277.554688 353.1875 L 279.367188 355.382812 L 280.273438 356.488281 L 281.222656 357.554688 L 283.113281 359.710938 C 282.351562 359.132812 281.601562 358.535156 280.839844 357.957031 L 279.707031 357.066406 L 278.609375 356.136719 C 277.878906 355.515625 277.15625 354.886719 276.433594 354.257812 C 275.710938 353.628906 275.023438 352.953125 274.316406 352.300781 C 271.5 349.675781 268.828125 346.902344 266.21875 344.074219 C 261.023438 338.386719 256.179688 332.390625 251.570312 326.238281 C 246.957031 320.082031 242.582031 313.757812 238.363281 307.34375 C 234.144531 300.925781 230.078125 294.410156 226.171875 287.8125 C 222.269531 281.214844 218.460938 274.558594 214.773438 267.847656 C 212.949219 264.480469 211.109375 261.121094 209.335938 257.730469 C 208.445312 256.039062 207.539062 254.351562 206.664062 252.648438 L 204.03125 247.550781 C 200.550781 240.730469 197.152344 233.878906 193.835938 226.996094 C 192.191406 223.542969 190.539062 220.09375 188.921875 216.632812 C 187.304688 213.171875 185.710938 209.699219 184.117188 206.226562 L 181.769531 201.003906 C 180.988281 199.261719 180.203125 197.519531 179.421875 195.773438 C 177.875 192.277344 176.34375 188.78125 174.824219 185.277344 C 171.808594 178.261719 168.847656 171.226562 165.941406 164.164062 L 163.777344 158.863281 L 161.640625 153.554688 C 160.210938 150.015625 158.828125 146.457031 157.429688 142.90625 C 154.664062 135.792969 151.957031 128.660156 149.308594 121.5 C 146.65625 114.34375 144.078125 107.160156 141.570312 99.957031 C 139.058594 92.75 136.617188 85.519531 134.242188 78.265625 C 131.871094 71.011719 129.578125 63.726562 127.371094 56.414062 C 125.175781 49.058594 123.042969 41.726562 121.140625 34.324219 Z M 121.140625 34.324219 " fill-opacity="1" fill-rule="nonzero"/></svg>